<?xml version="1.0" encoding="UTF-8"?>
<!--Generator: Apple Native CoreSVG 232.5-->
<!DOCTYPE svg
PUBLIC "-//W3C//DTD SVG 1.1//EN"
       "http://www.w3.org/Graphics/SVG/1.1/DTD/svg11.dtd">
<svg version="1.1" xmlns="http://www.w3.org/2000/svg" xmlns:xlink="http://www.w3.org/1999/xlink" width="3300" height="2200">
 <!--glyph: "uni1019A6.medium", point size: 100.0, font version: "19.0d8e1", template writer version: "128"-->
 <style>.SFSymbolsPreviewWireframe {fill:none;opacity:1.0;stroke:black;stroke-width:0.5}
</style>
 <g id="Notes">
  <rect height="2200" id="artboard" style="fill:white;opacity:1" width="3300" x="0" y="0"/>
  <line style="fill:none;stroke:black;opacity:1;stroke-width:0.5;" x1="263" x2="3036" y1="292" y2="292"/>
  <text style="stroke:none;fill:black;font-family:sans-serif;font-size:13;font-weight:bold;" transform="matrix(1 0 0 1 263 322)">Weight/Scale Variations</text>
  <text style="stroke:none;fill:black;font-family:sans-serif;font-size:13;text-anchor:middle;" transform="matrix(1 0 0 1 559.711 322)">Ultralight</text>
  <text style="stroke:none;fill:black;font-family:sans-serif;font-size:13;text-anchor:middle;" transform="matrix(1 0 0 1 856.422 322)">Thin</text>
  <text style="stroke:none;fill:black;font-family:sans-serif;font-size:13;text-anchor:middle;" transform="matrix(1 0 0 1 1153.13 322)">Light</text>
  <text style="stroke:none;fill:black;font-family:sans-serif;font-size:13;text-anchor:middle;" transform="matrix(1 0 0 1 1449.84 322)">Regular</text>
  <text style="stroke:none;fill:black;font-family:sans-serif;font-size:13;text-anchor:middle;" transform="matrix(1 0 0 1 1746.56 322)">Medium</text>
  <text style="stroke:none;fill:black;font-family:sans-serif;font-size:13;text-anchor:middle;" transform="matrix(1 0 0 1 2043.27 322)">Semibold</text>
  <text style="stroke:none;fill:black;font-family:sans-serif;font-size:13;text-anchor:middle;" transform="matrix(1 0 0 1 2339.98 322)">Bold</text>
  <text style="stroke:none;fill:black;font-family:sans-serif;font-size:13;text-anchor:middle;" transform="matrix(1 0 0 1 2636.69 322)">Heavy</text>
  <text style="stroke:none;fill:black;font-family:sans-serif;font-size:13;text-anchor:middle;" transform="matrix(1 0 0 1 2933.4 322)">Black</text>
  <line style="fill:none;stroke:black;opacity:1;stroke-width:0.5;" x1="263" x2="3036" y1="1903" y2="1903"/>
  <g transform="matrix(0.2 0 0 0.2 263 1933)">
   <path d="m46.2402 4.15039c21.5332 0 39.4531-17.8711 39.4531-39.4043s-17.9688-39.4043-39.502-39.4043c-21.4844 0-39.3555 17.8711-39.3555 39.4043s17.9199 39.4043 39.4043 39.4043Zm0-7.42188c-17.7246 0-31.8848-14.209-31.8848-31.9824s14.1113-31.9824 31.8359-31.9824c17.7734 0 32.0312 14.209 32.0312 31.9824s-14.209 31.9824-31.9824 31.9824Zm-17.9688-31.9824c0 2.14844 1.51367 3.61328 3.75977 3.61328h10.498v10.5957c0 2.19727 1.46484 3.71094 3.61328 3.71094 2.24609 0 3.71094-1.51367 3.71094-3.71094v-10.5957h10.5957c2.19727 0 3.71094-1.46484 3.71094-3.61328 0-2.19727-1.51367-3.71094-3.71094-3.71094h-10.5957v-10.5469c0-2.24609-1.46484-3.75977-3.71094-3.75977-2.14844 0-3.61328 1.51367-3.61328 3.75977v10.5469h-10.498c-2.24609 0-3.75977 1.51367-3.75977 3.71094Z"/>
  </g>
  <g transform="matrix(0.2 0 0 0.2 281.506 1933)">
   <path d="m58.5449 14.5508c27.2461 0 49.8047-22.6074 49.8047-49.8047 0-27.2461-22.6074-49.8047-49.8535-49.8047-27.1973 0-49.7559 22.5586-49.7559 49.8047 0 27.1973 22.6074 49.8047 49.8047 49.8047Zm0-8.30078c-23.0469 0-41.4551-18.457-41.4551-41.5039s18.3594-41.5039 41.4062-41.5039 41.5527 18.457 41.5527 41.5039-18.457 41.5039-41.5039 41.5039Zm-22.6562-41.5039c0 2.39258 1.66016 4.00391 4.15039 4.00391h14.3555v14.4043c0 2.44141 1.66016 4.15039 4.05273 4.15039 2.44141 0 4.15039-1.66016 4.15039-4.15039v-14.4043h14.4043c2.44141 0 4.15039-1.61133 4.15039-4.00391 0-2.44141-1.70898-4.15039-4.15039-4.15039h-14.4043v-14.3555c0-2.49023-1.70898-4.19922-4.15039-4.19922-2.39258 0-4.05273 1.70898-4.05273 4.19922v14.3555h-14.3555c-2.49023 0-4.15039 1.70898-4.15039 4.15039Z"/>
  </g>
  <g transform="matrix(0.2 0 0 0.2 304.924 1933)">
   <path d="m74.8535 28.3203c34.8145 0 63.623-28.8086 63.623-63.5742 0-34.8145-28.8574-63.623-63.6719-63.623-34.7656 0-63.5254 28.8086-63.5254 63.623 0 34.7656 28.8086 63.5742 63.5742 63.5742Zm0-9.08203c-30.1758 0-54.4434-24.3164-54.4434-54.4922 0-30.2246 24.2188-54.4922 54.3945-54.4922 30.2246 0 54.541 24.2676 54.541 54.4922 0 30.1758-24.2676 54.4922-54.4922 54.4922Zm-28.8574-54.4922c0 2.58789 1.85547 4.39453 4.58984 4.39453h19.7266v19.7754c0 2.68555 1.85547 4.58984 4.44336 4.58984 2.68555 0 4.54102-1.85547 4.54102-4.58984v-19.7754h19.7754c2.68555 0 4.58984-1.80664 4.58984-4.39453 0-2.73438-1.85547-4.58984-4.58984-4.58984h-19.7754v-19.7266c0-2.73438-1.85547-4.63867-4.54102-4.63867-2.58789 0-4.44336 1.9043-4.44336 4.63867v19.7266h-19.7266c-2.73438 0-4.58984 1.85547-4.58984 4.58984Z"/>
  </g>
  <text style="stroke:none;fill:black;font-family:sans-serif;font-size:13;font-weight:bold;" transform="matrix(1 0 0 1 263 1953)">Design Variations</text>
  <text style="stroke:none;fill:black;font-family:sans-serif;font-size:13;" transform="matrix(1 0 0 1 263 1971)">Symbols are supported in up to nine weights and three scales.</text>
  <text style="stroke:none;fill:black;font-family:sans-serif;font-size:13;" transform="matrix(1 0 0 1 263 1989)">For optimal layout with text and other symbols, vertically align</text>
  <text style="stroke:none;fill:black;font-family:sans-serif;font-size:13;" transform="matrix(1 0 0 1 263 2007)">symbols with the adjacent text.</text>
  <line style="fill:none;stroke:#00AEEF;stroke-width:0.5;opacity:1.0;" x1="776" x2="776" y1="1919" y2="1933"/>
  <g transform="matrix(0.2 0 0 0.2 776 1933)">
   <path d="m16.5527 0.78125c2.58789 0 3.85742-0.976562 4.78516-3.71094l6.29883-17.2363h28.8086l6.29883 17.2363c0.927734 2.73438 2.19727 3.71094 4.73633 3.71094 2.58789 0 4.24805-1.5625 4.24805-4.00391 0-0.830078-0.146484-1.61133-0.537109-2.63672l-22.9004-60.9863c-1.12305-2.97852-3.125-4.49219-6.25-4.49219-3.02734 0-5.07812 1.46484-6.15234 4.44336l-22.9004 61.084c-0.390625 1.02539-0.537109 1.80664-0.537109 2.63672 0 2.44141 1.5625 3.95508 4.10156 3.95508Zm13.4766-28.3691 11.8652-32.8613h0.244141l11.8652 32.8613Z"/>
  </g>
  <line style="fill:none;stroke:#00AEEF;stroke-width:0.5;opacity:1.0;" x1="792.836" x2="792.836" y1="1919" y2="1933"/>
  <text style="stroke:none;fill:black;font-family:sans-serif;font-size:13;font-weight:bold;" transform="matrix(1 0 0 1 776 1953)">Margins</text>
  <text style="stroke:none;fill:black;font-family:sans-serif;font-size:13;" transform="matrix(1 0 0 1 776 1971)">Leading and trailing margins on the left and right side of each symbol</text>
  <text style="stroke:none;fill:black;font-family:sans-serif;font-size:13;" transform="matrix(1 0 0 1 776 1989)">can be adjusted by modifying the x-location of the margin guidelines.</text>
  <text style="stroke:none;fill:black;font-family:sans-serif;font-size:13;" transform="matrix(1 0 0 1 776 2007)">Modifications are automatically applied proportionally to all</text>
  <text style="stroke:none;fill:black;font-family:sans-serif;font-size:13;" transform="matrix(1 0 0 1 776 2025)">scales and weights.</text>
  <g transform="matrix(0.2 0 0 0.2 1289 1933)">
   <path d="m14.209 9.32617 8.49609 8.54492c4.29688 4.3457 9.22852 4.05273 13.8672-1.07422l53.4668-58.9355-4.83398-4.88281-53.0762 58.3984c-1.75781 2.00195-3.41797 2.49023-5.76172 0.146484l-5.85938-5.81055c-2.34375-2.29492-1.80664-4.00391 0.195312-5.81055l57.373-54.0039-4.88281-4.83398-57.959 54.4434c-4.93164 4.58984-5.32227 9.47266-1.02539 13.8184Zm32.0801-90.9668c-2.09961 2.05078-2.24609 4.93164-1.07422 6.88477 1.17188 1.80664 3.4668 2.97852 6.68945 2.14844 7.32422-1.70898 14.9414-2.00195 22.0703 2.68555l-2.92969 7.27539c-1.70898 4.15039-0.830078 7.08008 1.85547 9.81445l11.4746 11.5723c2.44141 2.44141 4.49219 2.53906 7.32422 2.05078l5.32227-0.976562 3.32031 3.36914-0.195312 2.7832c-0.195312 2.49023 0.439453 4.39453 2.88086 6.78711l3.80859 3.71094c2.39258 2.39258 5.46875 2.53906 7.8125 0.195312l14.5508-14.5996c2.34375-2.34375 2.24609-5.32227-0.146484-7.71484l-3.85742-3.80859c-2.39258-2.39258-4.24805-3.17383-6.64062-2.97852l-2.88086 0.244141-3.22266-3.17383 1.2207-5.61523c0.634766-2.83203-0.146484-5.0293-3.07617-7.95898l-10.9863-10.9375c-16.6992-16.6016-38.8672-16.2109-53.3203-1.75781Zm7.4707 1.85547c12.1582-8.88672 28.6133-7.37305 39.7461 3.75977l12.1582 12.0605c1.17188 1.17188 1.36719 2.09961 1.02539 3.80859l-1.61133 7.42188 7.51953 7.42188 4.93164-0.292969c1.26953-0.0488281 1.66016 0.0488281 2.63672 1.02539l2.88086 2.88086-12.207 12.207-2.88086-2.88086c-0.976562-0.976562-1.12305-1.36719-1.07422-2.68555l0.341797-4.88281-7.4707-7.42188-7.61719 1.26953c-1.61133 0.341797-2.34375 0.195312-3.56445-0.976562l-10.0098-10.0098c-1.26953-1.17188-1.41602-2.00195-0.634766-3.85742l4.39453-10.4492c-7.8125-7.27539-17.9688-10.4004-28.125-7.42188-0.78125 0.195312-1.07422-0.439453-0.439453-0.976562Z"/>
  </g>
  <text style="stroke:none;fill:black;font-family:sans-serif;font-size:13;font-weight:bold;" transform="matrix(1 0 0 1 1289 1953)">Exporting</text>
  <text style="stroke:none;fill:black;font-family:sans-serif;font-size:13;" transform="matrix(1 0 0 1 1289 1971)">Symbols should be outlined when exporting to ensure the</text>
  <text style="stroke:none;fill:black;font-family:sans-serif;font-size:13;" transform="matrix(1 0 0 1 1289 1989)">design is preserved when submitting to Xcode.</text>
  <text id="template-version" style="stroke:none;fill:black;font-family:sans-serif;font-size:13;text-anchor:end;" transform="matrix(1 0 0 1 3036 1933)">Template v.5.0</text>
  <text style="stroke:none;fill:black;font-family:sans-serif;font-size:13;text-anchor:end;" transform="matrix(1 0 0 1 3036 1951)">Requires Xcode 15 or greater</text>
  <text id="descriptive-name" style="stroke:none;fill:black;font-family:sans-serif;font-size:13;text-anchor:end;" transform="matrix(1 0 0 1 3036 1969)">Generated from rectangle.and.pencil.and.ellipsis</text>
  <text style="stroke:none;fill:black;font-family:sans-serif;font-size:13;text-anchor:end;" transform="matrix(1 0 0 1 3036 1987)">Typeset at 100.0 points</text>
  <text style="stroke:none;fill:black;font-family:sans-serif;font-size:13;" transform="matrix(1 0 0 1 263 726)">Small</text>
  <text style="stroke:none;fill:black;font-family:sans-serif;font-size:13;" transform="matrix(1 0 0 1 263 1156)">Medium</text>
  <text style="stroke:none;fill:black;font-family:sans-serif;font-size:13;" transform="matrix(1 0 0 1 263 1586)">Large</text>
 </g>
 <g id="Guides">
  <g id="H-reference" style="fill:#27AAE1;stroke:none;" transform="matrix(1 0 0 1 339 696)">
   <path d="M0.993654 0L3.63775 0L29.3281-67.1323L30.0303-67.1323L30.0303-70.459L28.1226-70.459ZM11.6885-24.4799L46.9815-24.4799L46.2315-26.7285L12.4385-26.7285ZM55.1196 0L57.7637 0L30.6382-70.459L29.4326-70.459L29.4326-67.1323Z"/>
  </g>
  <line id="Baseline-S" style="fill:none;stroke:#27AAE1;opacity:1;stroke-width:0.5;" x1="263" x2="3036" y1="696" y2="696"/>
  <line id="Capline-S" style="fill:none;stroke:#27AAE1;opacity:1;stroke-width:0.5;" x1="263" x2="3036" y1="625.541" y2="625.541"/>
  <g id="H-reference" style="fill:#27AAE1;stroke:none;" transform="matrix(1 0 0 1 339 1126)">
   <path d="M0.993654 0L3.63775 0L29.3281-67.1323L30.0303-67.1323L30.0303-70.459L28.1226-70.459ZM11.6885-24.4799L46.9815-24.4799L46.2315-26.7285L12.4385-26.7285ZM55.1196 0L57.7637 0L30.6382-70.459L29.4326-70.459L29.4326-67.1323Z"/>
  </g>
  <line id="Baseline-M" style="fill:none;stroke:#27AAE1;opacity:1;stroke-width:0.5;" x1="263" x2="3036" y1="1126" y2="1126"/>
  <line id="Capline-M" style="fill:none;stroke:#27AAE1;opacity:1;stroke-width:0.5;" x1="263" x2="3036" y1="1055.54" y2="1055.54"/>
  <g id="H-reference" style="fill:#27AAE1;stroke:none;" transform="matrix(1 0 0 1 339 1556)">
   <path d="M0.993654 0L3.63775 0L29.3281-67.1323L30.0303-67.1323L30.0303-70.459L28.1226-70.459ZM11.6885-24.4799L46.9815-24.4799L46.2315-26.7285L12.4385-26.7285ZM55.1196 0L57.7637 0L30.6382-70.459L29.4326-70.459L29.4326-67.1323Z"/>
  </g>
  <line id="Baseline-L" style="fill:none;stroke:#27AAE1;opacity:1;stroke-width:0.5;" x1="263" x2="3036" y1="1556" y2="1556"/>
  <line id="Capline-L" style="fill:none;stroke:#27AAE1;opacity:1;stroke-width:0.5;" x1="263" x2="3036" y1="1485.54" y2="1485.54"/>
  <line id="left-margin-Ultralight-S" style="fill:none;stroke:#00AEEF;stroke-width:0.5;opacity:1.0;" x1="498.104" x2="498.104" y1="600.785" y2="720.121"/>
  <line id="right-margin-Ultralight-S" style="fill:none;stroke:#00AEEF;stroke-width:0.5;opacity:1.0;" x1="621.319" x2="621.319" y1="600.785" y2="720.121"/>
  <line id="left-margin-Regular-S" style="fill:none;stroke:#00AEEF;stroke-width:0.5;opacity:1.0;" x1="1381.61" x2="1381.61" y1="600.785" y2="720.121"/>
  <line id="right-margin-Regular-S" style="fill:none;stroke:#00AEEF;stroke-width:0.5;opacity:1.0;" x1="1518.08" x2="1518.08" y1="600.785" y2="720.121"/>
  <line id="left-margin-Black-S" style="fill:none;stroke:#00AEEF;stroke-width:0.5;opacity:1.0;" x1="2858.18" x2="2858.18" y1="600.785" y2="720.121"/>
  <line id="right-margin-Black-S" style="fill:none;stroke:#00AEEF;stroke-width:0.5;opacity:1.0;" x1="3008.62" x2="3008.62" y1="600.785" y2="720.121"/>
 </g>
 <g id="Symbols">
  <g id="Black-S" transform="matrix(1 0 0 1 2858.18 696)">
   <path class="SFSymbolsPreviewWireframe" d="M21.3867 2.92969L120.703 2.92969C128.027 2.92969 132.324-1.41602 132.324-8.59375L132.324-49.2188C132.324-56.3965 128.027-60.7422 120.703-60.7422L21.3867-60.7422C14.0625-60.7422 9.76562-56.4453 9.76562-49.2188L9.76562-8.59375C9.76562-1.41602 14.0625 2.92969 21.3867 2.92969ZM27.832-10.2539C25.6348-10.2539 24.4141-11.6211 24.4141-13.623L24.4141-44.1895C24.4141-46.4355 25.6348-47.5586 27.832-47.5586L114.258-47.5586C116.455-47.5586 117.676-46.1914 117.676-44.1895L117.676-13.623C117.676-11.6211 116.406-10.2539 114.209-10.2539ZM96.9727-20.3613L107.861-24.4629L143.994-60.5957C149.219-65.8203 149.365-73.9258 144.189-78.9551L142.578-80.5176C137.842-85.1562 129.736-84.6191 124.658-79.541L88.7207-43.6035L84.668-32.7148C81.7871-24.9512 89.5508-17.5781 96.9727-20.3613ZM94.4336-27.2461L103.809-30.7617L133.203-60.1562L124.414-68.9453L95.0195-39.5508L91.5527-30.1758C90.8203-28.2227 92.8223-26.6602 94.4336-27.2461ZM136.572-63.5254L138.818-65.7715C141.162-68.1152 141.357-71.5332 139.111-73.6816L137.5-75.2441C135.596-77.0508 132.08-76.6113 129.834-74.3652L127.734-72.2656ZM39.7461-22.168C43.457-22.168 46.4844-25.1953 46.4844-28.9062C46.4844-32.6172 43.457-35.6445 39.7461-35.6445C36.0352-35.6445 33.0078-32.6172 33.0078-28.9062C33.0078-25.1953 36.0352-22.168 39.7461-22.168ZM58.1543-22.168C61.8652-22.168 64.8926-25.1953 64.8926-28.9062C64.8926-32.6172 61.8652-35.6445 58.1543-35.6445C54.4434-35.6445 51.416-32.6172 51.416-28.9062C51.416-25.1953 54.4434-22.168 58.1543-22.168ZM76.5625-22.168C80.2734-22.168 83.3008-25.1953 83.3008-28.9062C83.3008-32.6172 80.2734-35.6445 76.5625-35.6445C72.8516-35.6445 69.8242-32.6172 69.8242-28.9062C69.8242-25.1953 72.8516-22.168 76.5625-22.168Z"/>
  </g>
  <g id="Regular-S" transform="matrix(1 0 0 1 1381.61 696)">
   <path class="SFSymbolsPreviewWireframe" d="M21.582 0.341797L97.4609 0.341797C105.127 0.341797 109.277-3.61328 109.277-11.2793L109.277-43.2617C109.277-50.9277 105.127-54.8828 97.4609-54.8828L21.582-54.8828C13.916-54.8828 9.76562-50.9277 9.76562-43.2617L9.76562-11.2793C9.76562-3.61328 13.916 0.341797 21.582 0.341797ZM21.4844-6.25C18.5059-6.25 16.7969-7.91016 16.7969-10.8887L16.7969-43.6523C16.7969-46.6309 18.5059-48.3398 21.4844-48.3398L97.5586-48.3398C100.537-48.3398 102.246-46.6309 102.246-43.6523L102.246-10.8887C102.246-7.91016 100.537-6.25 97.5586-6.25ZM79.7852-19.7754L88.9648-23.7305L129.883-64.7461C133.496-68.3594 133.496-74.1211 129.834-77.7832L128.76-78.8574C125.244-82.4219 119.434-82.2754 115.869-78.6621L75-37.793L70.8496-29.1016C68.2617-23.5352 74.0723-17.3828 79.7852-19.7754ZM77.5391-25.1953L85.6445-28.6621L119.775-62.793L113.965-68.5059L79.8828-34.375L76.1719-26.5625C75.8301-25.8789 76.709-24.8535 77.5391-25.1953ZM122.754-65.7715L125.684-68.7988C127.051-70.2148 127.051-72.2656 125.684-73.6328L124.609-74.707C123.389-75.9766 121.289-75.8301 120.02-74.5117L116.992-71.582ZM30.6152-21.4844C33.7891-21.4844 36.377-24.1211 36.377-27.2949C36.377-30.4688 33.7891-33.0566 30.6152-33.0566C27.4414-33.0566 24.8047-30.4688 24.8047-27.2949C24.8047-24.1211 27.4414-21.4844 30.6152-21.4844ZM47.4609-21.4844C50.6348-21.4844 53.2227-24.1211 53.2227-27.2949C53.2227-30.4688 50.6348-33.0566 47.4609-33.0566C44.2871-33.0566 41.6992-30.4688 41.6992-27.2949C41.6992-24.1211 44.2871-21.4844 47.4609-21.4844ZM64.3555-21.4844C67.5293-21.4844 70.1172-24.1211 70.1172-27.2949C70.1172-30.4688 67.5293-33.0566 64.3555-33.0566C61.1816-33.0566 58.5449-30.4688 58.5449-27.2949C58.5449-24.1211 61.1816-21.4844 64.3555-21.4844Z"/>
  </g>
  <g id="Ultralight-S" transform="matrix(1 0 0 1 498.104 696)">
   <path class="SFSymbolsPreviewWireframe" d="M18.1309-2.01951L90.7857-2.01951C95.9996-2.01951 99.151-5.20262 99.151-10.4165L99.151-39.9922C99.151-45.2061 95.9996-48.3892 90.7857-48.3892L18.1309-48.3892C12.9624-48.3892 9.76562-45.2061 9.76562-39.9922L9.76562-10.4165C9.76562-5.20262 12.9624-2.01951 18.1309-2.01951ZM18.2149-4.16115C14.1919-4.16115 11.9834-6.36622 11.9834-10.4346L11.9834-39.9742C11.9834-44.0425 14.1919-46.251 18.2149-46.251L90.7017-46.251C94.7247-46.251 96.9331-44.0425 96.9331-39.9742L96.9331-10.4346C96.9331-6.36622 94.7247-4.16115 90.7017-4.16115ZM72.5196-18.4585L79.6104-22.3228L116.487-59.0699C120.236-62.8194 120.191-67.6275 116.711-71.108L116.499-71.274C113.165-74.6114 108.127-74.4649 104.698-71.0333L67.8253-34.251L63.7657-27.0581C60.5875-21.4463 66.9883-15.4756 72.5196-18.4585ZM69.5923-23.5606L76.0177-27.0728L107.696-58.6607L104.156-62.2393L72.481-30.6968L68.9517-24.292C68.7007-23.7901 69.171-23.3096 69.5923-23.5606ZM109.948-60.9126L112.379-63.2588C113.746-64.584 113.791-65.7266 112.56-66.9576L112.349-67.1236C111.31-68.1661 109.982-68.065 108.803-66.8829L106.366-64.5435ZM27.7998-21.0757C30.0655-21.0757 31.9268-22.895 31.9268-25.2515C31.9268-27.5625 30.0655-29.3784 27.7998-29.3784C25.4434-29.3784 23.5332-27.5625 23.5332-25.2515C23.5332-22.895 25.4434-21.0757 27.7998-21.0757ZM42.5567-21.0757C44.8223-21.0757 46.6836-22.895 46.6836-25.2515C46.6836-27.5625 44.8223-29.3784 42.5567-29.3784C40.2002-29.3784 38.3389-27.5625 38.3389-25.2515C38.3389-22.895 40.2002-21.0757 42.5567-21.0757ZM57.3169-21.0757C59.5826-21.0757 61.4893-22.895 61.4893-25.2515C61.4893-27.5625 59.5826-29.3784 57.3169-29.3784C54.9605-29.3784 53.0957-27.5625 53.0957-25.2515C53.0957-22.895 54.9605-21.0757 57.3169-21.0757Z"/>
  </g>
 </g>
</svg>
